<?xml version="1.0" standalone="no"?>
<!DOCTYPE svg PUBLIC "-//W3C//DTD SVG 20010904//EN"
 "http://www.w3.org/TR/2001/REC-SVG-20010904/DTD/svg10.dtd">
<svg version="1.0" xmlns="http://www.w3.org/2000/svg"
 width="99.000000pt" height="46.000000pt" viewBox="0 0 99.000000 46.000000"
 preserveAspectRatio="xMidYMid meet">

<g transform="translate(0.000000,46.000000) scale(0.100000,-0.100000)"
fill="#000000" stroke="none">
<path d="M122 354 c-21 -14 -22 -23 -22 -133 0 -102 3 -120 18 -134 17 -15 57
-17 368 -17 274 1 353 3 367 14 14 11 17 31 17 136 0 105 -3 125 -17 136 -14
11 -92 13 -363 14 -297 0 -349 -2 -368 -16z m338 -93 c14 -26 13 -64 -2 -79
-17 -17 -63 -15 -78 3 -10 12 -10 15 3 15 8 0 17 -6 20 -12 3 -10 9 -10 23 -2
27 16 29 34 2 35 l-23 2 23 4 c26 5 28 16 7 33 -13 10 -19 10 -33 -4 -20 -18
-34 -12 -25 10 8 22 70 18 83 -5z m100 5 c0 -7 9 -16 20 -19 15 -4 20 -14 20
-37 0 -23 -5 -33 -20 -37 -11 -3 -20 -12 -20 -19 0 -8 -7 -14 -15 -14 -8 0
-12 6 -9 14 4 10 -2 16 -18 18 -19 2 -23 9 -23 38 0 29 4 36 23 38 16 2 22 8
18 18 -3 8 1 14 9 14 8 0 15 -6 15 -14z m-299 -28 l39 -21 -38 -23 c-20 -13
-40 -24 -44 -24 -5 0 -8 20 -8 45 0 25 3 45 6 45 4 0 24 -10 45 -22z m380 -10
l0 -23 16 23 c23 33 33 27 33 -18 0 -22 -4 -40 -10 -40 -5 0 -10 10 -10 22 l0
22 -16 -22 c-23 -33 -34 -27 -34 18 0 41 20 58 21 18z m139 2 c14 -26 -3 -60
-30 -60 -11 0 -20 -7 -20 -15 0 -8 -4 -15 -10 -15 -5 0 -10 25 -10 55 0 54 0
55 30 55 19 0 33 -7 40 -20z"/>
<path d="M510 210 c0 -28 13 -40 24 -22 7 12 -5 52 -15 52 -5 0 -9 -13 -9 -30z"/>
<path d="M560 210 c0 -16 4 -30 9 -30 13 0 21 27 15 45 -10 25 -24 17 -24 -15z"/>
<path d="M734 225 c-7 -18 2 -45 15 -45 12 0 24 37 16 50 -9 15 -25 12 -31 -5z"/>
</g>
</svg>
