<?xml version="1.0" standalone="no"?>
<!DOCTYPE svg PUBLIC "-//W3C//DTD SVG 20010904//EN"
 "http://www.w3.org/TR/2001/REC-SVG-20010904/DTD/svg10.dtd">
<svg version="1.0" xmlns="http://www.w3.org/2000/svg"
 width="95.000000pt" height="44.000000pt" viewBox="0 0 95.000000 44.000000"
 preserveAspectRatio="xMidYMid meet">

<g transform="translate(0.000000,44.000000) scale(0.100000,-0.100000)"
fill="#000000" stroke="none">
<path d="M275 399 c-64 -8 -107 -30 -135 -69 -40 -57 -35 -140 9 -140 12 0 21
-10 26 -27 10 -43 42 -80 88 -102 157 -76 313 87 236 245 -35 74 -115 107
-224 93z"/>
<path d="M658 349 c-10 -5 -18 -17 -18 -24 0 -18 2 -18 34 -4 13 6 36 9 50 5
20 -5 26 -13 26 -35 0 -29 -14 -41 -51 -41 -33 0 -22 -28 12 -32 67 -6 64 -74
-2 -72 -19 0 -42 4 -51 8 -14 6 -18 4 -18 -12 0 -22 24 -32 78 -32 38 0 82 37
82 69 0 21 -25 51 -42 51 -7 0 -2 10 10 23 28 30 28 61 0 87 -24 22 -81 27
-110 9z"/>
</g>
</svg>
