<?xml version="1.0" standalone="no"?>
<!DOCTYPE svg PUBLIC "-//W3C//DTD SVG 20010904//EN"
 "http://www.w3.org/TR/2001/REC-SVG-20010904/DTD/svg10.dtd">
<svg version="1.0" xmlns="http://www.w3.org/2000/svg"
 width="154.000000pt" height="56.000000pt" viewBox="0 0 154.000000 56.000000"
 preserveAspectRatio="xMidYMid meet">

<g transform="translate(0.000000,56.000000) scale(0.100000,-0.100000)"
fill="#000000" stroke="none">
<path d="M416 455 c-3 -8 -1 -15 4 -15 6 0 10 7 10 15 0 8 -2 15 -4 15 -2 0
-6 -7 -10 -15z"/>
<path d="M530 456 c0 -2 7 -7 16 -10 8 -3 12 -2 9 4 -6 10 -25 14 -25 6z"/>
<path d="M518 423 c7 -3 16 -2 19 1 4 3 -2 6 -13 5 -11 0 -14 -3 -6 -6z"/>
<path d="M290 407 c0 -9 10 -21 23 -27 19 -9 20 -9 6 2 -9 7 -16 17 -17 21 -1
17 -12 20 -12 4z"/>
<path d="M992 372 c-18 -15 -32 -35 -32 -45 0 -17 2 -17 26 2 15 12 31 21 35
21 5 0 9 -45 9 -100 0 -82 3 -100 15 -100 13 0 15 21 15 125 0 141 -5 149 -68
97z"/>
<path d="M1160 380 c-23 -23 -25 -49 -6 -75 12 -17 12 -22 -5 -44 -26 -32 -24
-57 6 -86 35 -36 111 -31 137 9 14 21 8 65 -12 84 -18 17 -19 20 -5 32 23 19
19 66 -7 84 -31 22 -84 20 -108 -4z m94 -32 c15 -25 -14 -53 -47 -44 -32 8
-41 31 -20 51 19 20 52 16 67 -7z m0 -94 c9 -8 16 -22 16 -29 0 -18 -28 -45
-46 -45 -29 0 -54 21 -54 45 0 40 54 59 84 29z"/>
<path d="M1350 379 c-17 -31 -8 -62 23 -77 53 -25 95 25 67 79 -15 27 -75 26
-90 -2z m67 -10 c18 -18 3 -49 -22 -49 -25 0 -34 15 -27 43 5 19 32 23 49 6z"/>
<path d="M370 360 c0 -6 7 -13 15 -16 8 -4 12 -10 9 -15 -3 -5 2 -9 10 -9 22
0 20 12 -4 33 -23 20 -30 21 -30 7z"/>
<path d="M575 320 c3 -5 11 -10 16 -10 6 0 7 5 4 10 -3 6 -11 10 -16 10 -6 0
-7 -4 -4 -10z"/>
<path d="M750 265 c0 -12 16 -15 85 -15 69 0 85 3 85 15 0 12 -16 15 -85 15
-69 0 -85 -3 -85 -15z"/>
<path d="M190 256 c0 -22 17 -28 24 -10 9 22 8 24 -9 24 -8 0 -15 -6 -15 -14z"/>
<path d="M440 230 c0 -32 14 -41 24 -15 3 8 10 14 15 13 5 -2 9 0 10 5 1 4 -2
7 -6 8 -5 1 -16 5 -25 10 -15 8 -18 5 -18 -21z"/>
<path d="M580 189 c0 -5 5 -7 10 -4 6 3 10 8 10 11 0 2 -4 4 -10 4 -5 0 -10
-5 -10 -11z"/>
</g>
</svg>
