<?xml version="1.0" encoding="iso-8859-1"?>
<!-- Generator: Adobe Illustrator 19.0.0, SVG Export Plug-In . SVG Version: 6.00 Build 0)  -->
<svg version="1.1" id="Layer_1" xmlns="http://www.w3.org/2000/svg" xmlns:xlink="http://www.w3.org/1999/xlink" x="0px" y="0px"
	 viewBox="0 0 330 330" style="enable-background:new 0 0 330 330;" xml:space="preserve">
<path id="XMLID_29_" d="M315,0H15C6.716,0,0,6.716,0,15v300c0,8.284,6.716,15,15,15h300c8.284,0,15-6.716,15-15V15
	C330,6.716,323.284,0,315,0z M265.606,107.796l-135.62,135.621c-2.813,2.813-6.629,4.393-10.606,4.393
	c-3.979,0-7.794-1.581-10.607-4.393l-44.381-44.381c-5.857-5.858-5.857-15.355,0.001-21.213c5.858-5.857,15.354-5.857,21.214,0
	l33.772,33.774L244.394,86.583c5.857-5.858,15.355-5.858,21.213,0C271.465,92.44,271.465,101.938,265.606,107.796z"/>
<g>
</g>
<g>
</g>
<g>
</g>
<g>
</g>
<g>
</g>
<g>
</g>
<g>
</g>
<g>
</g>
<g>
</g>
<g>
</g>
<g>
</g>
<g>
</g>
<g>
</g>
<g>
</g>
<g>
</g>
</svg>
