<?xml version="1.0"?>
<svg xmlns="http://www.w3.org/2000/svg" xmlns:xlink="http://www.w3.org/1999/xlink" version="1.1" id="Capa_1" x="0px" y="0px" viewBox="0 0 512 512" style="enable-background:new 0 0 512 512;" xml:space="preserve" width="512px" height="512px" class=""><g><path style="fill:#34ABE0;" d="M512,256v0.408c-0.031,22.768-3.041,44.837-8.662,65.839c-2.414,9.059-5.319,17.91-8.683,26.54  c-3.553,9.153-7.617,18.045-12.173,26.645c-4.869,9.237-10.292,18.129-16.227,26.645c-5.914,8.495-12.319,16.603-19.195,24.304  c-6.729,7.544-13.897,14.691-21.473,21.389c-3.626,3.208-7.346,6.322-11.149,9.32c-0.69,0.543-1.379,1.087-2.079,1.62  c-0.993,0.773-1.996,1.536-2.999,2.288c-4.169,3.124-8.443,6.134-12.81,8.997c-1.212,0.805-2.435,1.599-3.668,2.372  c-15.433,9.791-31.995,17.972-49.434,24.304c-0.418,0.146-0.836,0.303-1.254,0.449c-3.657,1.306-7.356,2.539-11.086,3.678  c-12.487,3.835-25.391,6.729-38.609,8.61c-10.407,1.494-21.013,2.351-31.786,2.539c-1.066,0.031-2.132,0.042-3.197,0.042  C257.014,512,256.502,512,256,512c-1.202,0-2.403-0.01-3.605-0.021c-1.066-0.021-2.132-0.042-3.187-0.073  c-13.96-0.355-27.638-1.839-40.95-4.347c-3.25-0.606-6.468-1.285-9.665-2.027c-10.512-2.403-20.773-5.454-30.741-9.122  c-0.491-0.167-0.972-0.355-1.463-0.533c-17.429-6.51-33.97-14.879-49.361-24.848c-5.966-3.866-11.766-7.973-17.377-12.319  c-1.118-0.857-2.236-1.735-3.333-2.612c-3.866-3.093-7.649-6.301-11.327-9.603c-7.346-6.593-14.315-13.615-20.846-21.013  c-2.069-2.33-4.086-4.702-6.06-7.105c-13.322-16.217-24.691-34.105-33.75-53.29C8.725,331.995,0,295.016,0,256  c0-25.172,3.636-49.507,10.407-72.485c2.675-9.101,5.851-17.993,9.498-26.645c12.497-29.738,30.459-56.613,52.621-79.381  c3.939-4.044,8.004-7.962,12.204-11.745l0.01-0.01c8.652-7.795,17.826-15.005,27.481-21.567c1.588-1.087,3.187-2.152,4.807-3.197  c13.897-9.007,28.724-16.697,44.304-22.894c0.01,0,0.01,0,0.01,0C190.631,6.416,222.553,0,256,0c33.52,0,65.526,6.437,94.866,18.16  h0.01c14.723,5.872,28.776,13.082,42.005,21.473c2.32,1.473,4.629,2.978,6.896,4.535c8.15,5.528,15.956,11.525,23.385,17.941  c5.663,4.89,11.107,10.021,16.321,15.381c26.937,27.679,47.658,61.419,59.925,98.983C507.58,201.509,512,228.237,512,256z" data-original="#34ABE0" class=""/><g>
	<path style="fill:#78CAEF;" d="M87.27,405.055c0,7.367-5.966,13.322-13.322,13.322H58.086   c-13.322-16.217-24.691-34.105-33.75-53.29h22.967c7.356,0,13.322,5.966,13.322,13.322c0,3.678,1.494,7.011,3.908,9.425   c2.403,2.403,5.736,3.897,9.415,3.897c3.678,0,7.011,1.494,9.415,3.897C85.776,398.043,87.27,401.377,87.27,405.055z" data-original="#78CAEF" class=""/>
	<path style="fill:#78CAEF;" d="M254.015,240.713c2.403,2.403,3.897,5.736,3.897,9.415c0,7.356-5.956,13.322-13.322,13.322h-1.306   c-3.678,0-7.011,1.494-9.415,3.908c-2.414,2.403-3.908,5.736-3.908,9.415c0,7.356-5.966,13.322-13.322,13.322H24.764   c-3.678,0-7.011-1.494-9.425-3.908c-2.403-2.403-3.897-5.736-3.897-9.415c0-7.356,5.966-13.322,13.322-13.322h40.5   c3.678,0,7.011-1.494,9.425-3.908c2.403-2.403,3.897-5.737,3.897-9.415c0-7.356-5.966-13.322-13.322-13.322H53.959   c-3.678,0-7.011-1.494-9.425-3.908c-2.403-2.403-3.897-5.736-3.897-9.415c0-7.356,5.966-13.322,13.322-13.322h37.418   c3.678,0,7.011-1.494,9.415-3.908c2.414-2.403,3.908-5.736,3.908-9.415c0-7.356-5.966-13.322-13.322-13.322H10.407   c2.675-9.101,5.851-17.993,9.498-26.645h193.599c3.678,0,7.011,1.484,9.415,3.897c2.414,2.414,3.908,5.736,3.908,9.425   c0,7.356,5.966,13.322,13.322,13.322h4.441c7.367,0,13.322,5.966,13.322,13.322s-5.956,13.322-13.322,13.322H220.17   c-3.678,0-7.011,1.494-9.415,3.908c-2.414,2.403-3.908,5.736-3.908,9.415c0,7.356,5.966,13.322,13.322,13.322h24.419   C248.268,236.805,251.601,238.299,254.015,240.713z" data-original="#78CAEF" class=""/>
	<path style="fill:#78CAEF;" d="M512,256v0.408h-52.621c-3.678,0-7.011-1.484-9.425-3.897c-2.403-2.414-3.897-5.736-3.897-9.425   c0-7.356,5.966-13.322,13.322-13.322h3.699c3.678,0,7.011-1.494,9.425-3.908c2.403-2.403,3.897-5.736,3.897-9.415   c0-7.356-5.966-13.322-13.322-13.322h-36.31c-3.688,0-7.011-1.494-9.425-3.908c-2.414-2.403-3.908-5.736-3.908-9.415   c0-7.356,5.966-13.322,13.333-13.322h72.641C507.58,201.509,512,228.237,512,256z" data-original="#78CAEF" class=""/>
	<path style="fill:#78CAEF;" d="M445.471,362.109c0,7.356,5.966,13.322,13.322,13.322h23.688   c-4.869,9.237-10.292,18.129-16.227,26.645H395.88c-3.678,0-7.011-1.494-9.415-3.897c-2.414-2.414-3.908-5.747-3.908-9.425   c0-7.356-5.956-13.322-13.322-13.322H305.58c-3.678,0-7.011-1.494-9.415-3.897c-2.414-2.414-3.908-5.747-3.908-9.425   c0-7.356,5.966-13.322,13.322-13.322h42.935c3.678,0,7.011-1.494,9.425-3.897c2.403-2.414,3.897-5.747,3.897-9.425   c0-7.356,5.966-13.322,13.322-13.322h126.568c0.543,0,1.087,0.031,1.609,0.104c-2.414,9.059-5.319,17.91-8.683,26.54h-35.861   C451.438,348.787,445.471,354.753,445.471,362.109z" data-original="#78CAEF" class=""/>
</g><path style="fill:#EF4152;" d="M252.426,133.068c0,4.18-0.293,8.286-0.846,12.309c-5.987,43.269-43.133,76.591-88.054,76.591  c-49.1,0-88.9-39.8-88.9-88.9c0-44.92,33.322-82.066,76.591-88.054c4.023-0.554,8.129-0.846,12.309-0.846  C212.626,44.168,252.426,83.968,252.426,133.068z" data-original="#EF4152"/><circle style="fill:#CCC9C9" cx="163.527" cy="323.678" r="88.9" data-original="#EDBB4C" class="" data-old_color="#CDCACA"/><path style="fill:#999F9C" d="M252.395,511.979c-1.066-0.021-2.132-0.042-3.187-0.073c-13.96-0.355-27.638-1.839-40.95-4.347  c-3.25-0.606-6.468-1.285-9.665-2.027c-10.512-2.403-20.773-5.454-30.741-9.122c-0.491-0.167-0.972-0.355-1.463-0.533  c-17.429-6.51-33.97-14.879-49.361-24.848c-5.966-3.866-11.766-7.973-17.377-12.319c-1.118-0.857-2.236-1.735-3.333-2.612  c5.945-6.865,12.936-12.81,20.71-17.586c13.531-8.328,29.445-13.124,46.498-13.124c16.718,0,32.36,4.608,45.714,12.643  c3.041,1.818,5.966,3.824,8.756,5.998c5.528,4.294,10.543,9.216,14.911,14.681C244.673,473.37,251.883,491.844,252.395,511.979z" data-original="#41B787" class="" data-old_color="#989F9C"/><path style="fill:#FF525D;" d="M435.284,133.068c0,4.18-0.293,8.286-0.846,12.309c-5.987,43.269-43.133,76.591-88.054,76.591  c-49.1,0-88.9-39.8-88.9-88.9c0-44.92,33.322-82.066,76.591-88.054c4.023-0.554,8.129-0.846,12.309-0.846  C395.483,44.168,435.284,83.968,435.284,133.068z" data-original="#FF525D" class=""/><circle style="fill:#E6E2D7" cx="346.384" cy="323.678" r="88.9" data-original="#FFD15C" class="" data-old_color="#E5E1D5"/><path style="fill:#BBBCBC" d="M414.438,457.091c-0.69,0.543-1.379,1.087-2.079,1.62c-0.993,0.773-1.996,1.536-2.999,2.288  c-4.169,3.124-8.443,6.134-12.81,8.997c-1.212,0.805-2.435,1.599-3.668,2.372c-15.433,9.791-31.995,17.972-49.434,24.304  c-0.418,0.146-0.836,0.303-1.254,0.449c-3.657,1.306-7.356,2.539-11.086,3.678c-12.487,3.835-25.391,6.729-38.609,8.61  c-10.407,1.494-21.013,2.351-31.786,2.539c-1.066,0.031-2.132,0.042-3.197,0.042c0.46-18.233,6.416-35.098,16.259-49.006  c0.104-0.136,0.199-0.272,0.293-0.408c0.94-1.317,1.923-2.602,2.936-3.866c6.583-8.223,14.597-15.235,23.667-20.679  c13.354-8.035,28.996-12.643,45.714-12.643c17.053,0,32.967,4.796,46.498,13.124C401.032,443.517,408.304,449.808,414.438,457.091z" data-original="#4BC999" class="" data-old_color="#BABCBC"/><g>
	<path style="fill:#494B5B;" d="M447.06,426.381c-6.729,7.544-13.897,14.691-21.473,21.389c-3.626,3.208-7.346,6.322-11.149,9.32   c-0.69,0.543-1.379,1.087-2.079,1.62H99.652c-1.118-0.857-2.236-1.735-3.333-2.612c-3.866-3.093-7.649-6.301-11.327-9.603   c-7.346-6.593-14.315-13.615-20.846-21.013c0.857-0.063,1.735-0.094,2.612-0.094h372.214   C441.762,425.388,444.468,425.733,447.06,426.381z" data-original="#494B5B" class=""/>
	<path style="fill:#494B5B;" d="M472.294,268.099H33.437l0,0c0-18.403,14.918-33.321,33.32-33.321h372.217   C457.376,234.779,472.294,249.697,472.294,268.099L472.294,268.099z" data-original="#494B5B" class=""/>
	<path style="fill:#494B5B;" d="M472.294,77.489H33.437l0,0c0-18.403,14.918-33.321,33.32-33.321h372.217   C457.376,44.168,472.294,59.086,472.294,77.489L472.294,77.489z" data-original="#494B5B" class=""/>
</g><path style="fill:#5C5E70;" d="M392.882,22.518v449.849c-15.433,9.791-31.995,17.972-49.434,24.304  c-0.418,0.146-0.836,0.303-1.254,0.449c-3.657,1.306-7.356,2.539-11.086,3.678c-12.487,3.835-25.391,6.729-38.609,8.61  c-10.407,1.494-21.013,2.351-31.786,2.539c-1.066,0.031-2.132,0.042-3.197,0.042C257.014,512,256.502,512,256,512  c-1.202,0-2.403-0.01-3.605-0.021c-1.066-0.021-2.132-0.042-3.187-0.073c-13.96-0.355-27.638-1.839-40.95-4.347  c-3.25-0.606-6.468-1.285-9.665-2.027c-10.512-2.403-20.773-5.454-30.741-9.122c-0.491-0.167-0.972-0.355-1.463-0.533  c-17.429-6.51-33.97-14.879-49.361-24.848V22.518C117.029,10.083,127.112,0,139.546,0h230.818  C382.798,0,392.882,10.083,392.882,22.518z" data-original="#5C5E70" class=""/><path style="fill:#EF4152;" d="M343.855,133.068c0,4.18-0.293,8.286-0.846,12.309c-5.987,43.269-43.133,76.591-88.054,76.591  c-49.1,0-88.9-39.8-88.9-88.9c0-44.92,33.322-82.066,76.591-88.054c4.023-0.554,8.129-0.846,12.309-0.846  C304.055,44.168,343.855,83.968,343.855,133.068z" data-original="#EF4152"/><path style="fill:#FF525D;" d="M343.855,133.068c0,4.18-0.293,8.286-0.846,12.309c-11.891,26.363-38.4,44.722-69.204,44.722  c-41.9,0-75.88-33.98-75.88-75.88c0-30.804,18.359-57.313,44.722-69.204c4.023-0.554,8.129-0.846,12.309-0.846  C304.055,44.168,343.855,83.968,343.855,133.068z" data-original="#FF525D" class=""/><g>
	<circle style="fill:#FF6E7C;" cx="310.335" cy="117.311" r="20.898" data-original="#FF6E7C"/>
	<circle style="fill:#FF6E7C;" cx="281.078" cy="91.188" r="10.449" data-original="#FF6E7C"/>
</g><circle style="fill:#CCC9C9" cx="254.955" cy="323.678" r="88.9" data-original="#EDBB4C" class="" data-old_color="#CDCACA"/><path style="fill:#E6E2D7" d="M343.855,323.679c0,4.18-0.293,8.286-0.846,12.309c-11.891,26.363-38.4,44.722-69.204,44.722  c-41.9,0-75.88-33.98-75.88-75.88c0-30.804,18.359-57.313,44.722-69.204c4.023-0.554,8.129-0.846,12.309-0.846  C304.055,234.779,343.855,274.579,343.855,323.679z" data-original="#FFD15C" class="" data-old_color="#E5E1D5"/><g>
	<circle style="fill:#F4EDE5" cx="310.335" cy="307.921" r="20.898" data-original="#FFDC8D" class="" data-old_color="#F6EFE6"/>
	<circle style="fill:#F4EDE5" cx="281.078" cy="281.799" r="10.449" data-original="#FFDC8D" class="" data-old_color="#F6EFE6"/>
</g><path style="fill:#999F9C" d="M342.194,497.121c-3.657,1.306-7.356,2.539-11.086,3.678c-12.487,3.835-25.391,6.729-38.609,8.61  c-10.407,1.494-21.013,2.351-31.786,2.539c-1.066,0.031-2.132,0.042-3.197,0.042C257.014,512,256.502,512,256,512  c-1.202,0-2.403-0.01-3.605-0.021c-1.066-0.021-2.132-0.042-3.187-0.073c-13.96-0.355-27.638-1.839-40.95-4.347  c-3.25-0.606-6.468-1.285-9.665-2.027c-10.512-2.403-20.773-5.454-30.741-9.122c2.873-14.054,9.059-26.906,17.721-37.7  c6.583-8.213,14.597-15.224,23.667-20.679c10.021-6.029,21.316-10.125,33.395-11.797h0.01c0.104-0.01,0.199-0.031,0.303-0.042  c0.345-0.042,0.7-0.094,1.055-0.136c0.742-0.094,1.484-0.167,2.236-0.24c0.502-0.052,0.993-0.104,1.494-0.136  c0.846-0.073,1.693-0.125,2.55-0.167c0.219-0.01,0.439-0.021,0.658-0.031c0.575-0.031,1.139-0.052,1.714-0.063  c0.763-0.021,1.536-0.031,2.299-0.031c16.718,0,32.36,4.608,45.714,12.643c9.07,5.454,17.084,12.466,23.667,20.679  C333.145,469.682,339.393,482.785,342.194,497.121z" data-original="#41B787" class="" data-old_color="#989F9C"/><path style="fill:#BBBCBC" d="M342.194,497.121c-3.657,1.306-7.356,2.539-11.086,3.678c-12.487,3.835-25.391,6.729-38.609,8.61  c-10.407,1.494-21.013,2.351-31.786,2.539c-1.066,0.031-2.132,0.042-3.197,0.042C257.014,512,256.502,512,256,512  c-1.202,0-2.403-0.01-3.605-0.021c-1.066-0.021-2.132-0.042-3.187-0.073c-13.96-0.355-27.638-1.839-40.95-4.347  c-3.25-0.606-6.468-1.285-9.665-2.027c-0.439-3.302-0.669-6.666-0.669-10.094c0-13.322,3.438-25.851,9.477-36.728  c2.947-5.319,6.51-10.24,10.595-14.681c6.886-7.471,15.256-13.552,24.639-17.795h0.01c0.104-0.01,0.199-0.031,0.303-0.042  c0.345-0.042,0.7-0.094,1.055-0.136c0.742-0.094,1.484-0.167,2.236-0.24c0.502-0.052,0.993-0.104,1.494-0.136  c0.846-0.073,1.693-0.125,2.55-0.167c0.219-0.01,0.439-0.021,0.658-0.031c0.575-0.031,1.139-0.052,1.714-0.063  c0.763-0.021,1.536-0.031,2.299-0.031c16.718,0,32.36,4.608,45.714,12.643c9.07,5.454,17.084,12.466,23.667,20.679  C333.145,469.682,339.393,482.785,342.194,497.121z" data-original="#4BC999" class="" data-old_color="#BABCBC"/><g>
	<path style="fill:#BFC5C2" d="M331.233,498.531c0,0.763-0.042,1.526-0.125,2.267c-12.487,3.835-25.391,6.729-38.609,8.61   c-1.943-3.166-3.062-6.896-3.062-10.877c0-11.536,9.352-20.898,20.898-20.898S331.233,486.996,331.233,498.531z" data-original="#5BD3A2" class="active-path" data-old_color="#BEC5C2"/>
	<circle style="fill:#BFC5C2" cx="281.078" cy="472.409" r="10.449" data-original="#5BD3A2" class="active-path" data-old_color="#BEC5C2"/>
</g><circle style="fill:#FF6E7C;" cx="413.257" cy="108.429" r="9.927" data-original="#FF6E7C"/><circle style="fill:#F4EDE5" cx="413.257" cy="292.331" r="9.927" data-original="#FFDC8D" class="" data-old_color="#F6EFE6"/><path style="fill:#BFC5C2" d="M409.36,460.999c-4.169,3.124-8.443,6.134-12.81,8.997c0.261-5.256,4.598-9.435,9.916-9.435  C407.468,460.56,408.451,460.706,409.36,460.999z" data-original="#5BD3A2" class="active-path" data-old_color="#BEC5C2"/><circle style="fill:#797B89" cx="354.22" cy="64.021" r="19.853" data-original="#797B89" class=""/><g>
	<path style="fill:#494B5B;" d="M343.009,268.099H162.722l0,0c0-18.403,14.918-33.321,33.32-33.321h113.646   C328.091,234.779,343.009,249.697,343.009,268.099L343.009,268.099z" data-original="#494B5B" class=""/>
	<path style="fill:#494B5B;" d="M343.009,458.708H162.722l0,0c0-18.403,14.918-33.32,33.32-33.32h113.646   C328.091,425.388,343.009,440.306,343.009,458.708L343.009,458.708z" data-original="#494B5B" class=""/>
	<path style="fill:#494B5B;" d="M343.009,77.489H162.722l0,0c0-18.403,14.918-33.32,33.32-33.32h113.646   C328.091,44.168,343.009,59.086,343.009,77.489L343.009,77.489z" data-original="#494B5B" class=""/>
</g></g> </svg>
