<?xml version="1.0" encoding="UTF-8"?>
<svg xmlns="http://www.w3.org/2000/svg" xmlns:xlink="http://www.w3.org/1999/xlink" width="16pt" height="16pt" viewBox="0 0 16 16" version="1.1">
<g id="surface1">
<path style=" stroke:none;fill-rule:nonzero;fill:rgb(0%,0%,0%);fill-opacity:1;" d="M 12.855469 9.015625 C 12.28125 7.609375 11.992188 6.125 11.992188 4.566406 C 11.992188 3.585938 11.707031 2.808594 11.136719 2.230469 C 10.5625 1.652344 9.777344 1.304688 8.78125 1.1875 C 8.828125 1.078125 8.851562 0.96875 8.851562 0.855469 C 8.851562 0.617188 8.765625 0.417969 8.601562 0.25 C 8.433594 0.0820312 8.234375 0 7.996094 0 C 7.757812 0 7.554688 0.0820312 7.386719 0.25 C 7.21875 0.417969 7.136719 0.617188 7.136719 0.855469 C 7.136719 0.96875 7.160156 1.078125 7.207031 1.1875 C 6.210938 1.304688 5.425781 1.652344 4.855469 2.230469 C 4.28125 2.808594 3.996094 3.585938 3.996094 4.566406 C 3.996094 6.125 3.707031 7.609375 3.132812 9.015625 C 2.554688 10.421875 1.703125 11.605469 0.570312 12.5625 C 0.570312 12.871094 0.683594 13.140625 0.910156 13.363281 C 1.136719 13.59375 1.40625 13.703125 1.714844 13.703125 L 5.710938 13.703125 C 5.710938 14.335938 5.933594 14.875 6.378906 15.320312 C 6.824219 15.765625 7.363281 15.988281 7.996094 15.988281 C 8.625 15.988281 9.164062 15.765625 9.609375 15.320312 C 10.054688 14.875 10.277344 14.335938 10.277344 13.703125 L 14.277344 13.703125 C 14.585938 13.703125 14.851562 13.59375 15.078125 13.363281 C 15.304688 13.140625 15.417969 12.871094 15.417969 12.5625 C 14.289062 11.605469 13.433594 10.421875 12.855469 9.015625 Z M 7.996094 15.273438 C 7.5625 15.273438 7.1875 15.121094 6.882812 14.816406 C 6.578125 14.507812 6.421875 14.140625 6.421875 13.703125 C 6.421875 13.609375 6.472656 13.5625 6.566406 13.5625 C 6.660156 13.5625 6.710938 13.609375 6.710938 13.703125 C 6.710938 14.054688 6.835938 14.359375 7.089844 14.609375 C 7.34375 14.863281 7.644531 14.988281 7.996094 14.988281 C 8.089844 14.988281 8.136719 15.035156 8.136719 15.132812 C 8.136719 15.226562 8.089844 15.273438 7.996094 15.273438 Z M 7.996094 15.273438 "/>
</g>
</svg>
