<svg xmlns="http://www.w3.org/2000/svg" viewBox="0 0 34.652 34.652"><path d="M15.529 32.855C6.966 32.855 0 25.889 0 17.326 0 8.763 6.966 1.797 15.529 1.797c8.563 0 15.529 6.967 15.529 15.529a.888.888 0 1 1-1.776 0c0-7.584-6.17-13.755-13.754-13.755-7.585 0-13.755 6.171-13.755 13.755 0 7.584 6.17 13.754 13.755 13.754 4.852 0 9.397-2.601 11.862-6.787a.887.887 0 0 1 1.53.901c-2.781 4.725-7.913 7.661-13.391 7.661z" fill="#0054b9"/><path d="M30.17 18.214a.887.887 0 0 1-.45-.123l-5.561-3.284a.887.887 0 1 1 .903-1.527l4.852 2.865 3.123-4.473a.887.887 0 0 1 1.455 1.015l-3.594 5.146a.886.886 0 0 1-.728.381z" fill="#0054b9"/></svg>
