<?xml version="1.0" standalone="no"?>
<!DOCTYPE svg PUBLIC "-//W3C//DTD SVG 20010904//EN"
 "http://www.w3.org/TR/2001/REC-SVG-20010904/DTD/svg10.dtd">
<svg version="1.0" xmlns="http://www.w3.org/2000/svg"
 width="842.000000pt" height="595.000000pt" viewBox="0 0 842.000000 595.000000"
 preserveAspectRatio="xMidYMid meet">

<g transform="translate(0.000000,595.000000) scale(0.100000,-0.100000)"
fill="#000000" stroke="none">
<path d="M760 2985 l0 -725 873 0 872 0 -3 725 -2 725 -870 0 -870 0 0 -725z"/>
<path d="M3340 2975 l0 -725 870 0 870 0 0 725 0 725 -870 0 -870 0 0 -725z"/>
<path d="M5818 2975 l-3 -715 905 0 905 0 -3 715 -2 715 -900 0 -900 0 -2
-715z"/>
</g>
</svg>
