<svg xmlns="http://www.w3.org/2000/svg" width="16" height="16"><g fill="#B0C2D6" fill-rule="evenodd"><path d="M12.5 1.39c1 .67 1.83 1.57 2.43 2.6a2.5 2.5 0 0 1-2.43-2.6z"/><path d="M11.64.87c-.1.32-.14.66-.14 1a3.94 3.94 0 0 0 4.18 3.88l.09.33A5.06 5.06 0 0 1 9.59.15c.72.15 1.4.4 2.05.72z"/><path d="M8.62.02a6.38 6.38 0 0 0 7.35 7.4l.03.35A7.56 7.56 0 0 1 6.5.14 8.04 8.04 0 0 1 8.62.02z"/><path d="M5.5.4v.22a9.06 9.06 0 0 0 10.33 9.03l-.08.34A10.05 10.05 0 0 1 3.57 1.33 9.3 9.3 0 0 1 5.5.4z"/><path d="M2.18 2.52a11.5 11.5 0 0 0 12.8 9.39 8 8 0 1 1-12.8-9.4z"/></g></svg>