<svg xmlns="http://www.w3.org/2000/svg" width="548.176" height="548.176"><path d="M537.468 120.342c-7.139-7.139-15.753-10.709-25.841-10.709H36.545c-10.088 0-18.699 3.571-25.837 10.709C3.571 127.48 0 136.094 0 146.179v255.815c0 10.089 3.571 18.698 10.708 25.837 7.139 7.139 15.749 10.712 25.837 10.712h475.082c10.088 0 18.702-3.573 25.841-10.712 7.135-7.139 10.708-15.748 10.708-25.837V146.179c0-10.085-3.573-18.699-10.708-25.837zm-25.841 281.652H36.545V146.179h475.082v255.815z"/><path d="M77.657 365.445h27.408c3.046 0 4.569-1.526 4.569-4.568v-27.408c0-3.039-1.52-4.568-4.569-4.568H77.657c-3.044 0-4.568 1.529-4.568 4.568v27.408c0 3.042 1.524 4.568 4.568 4.568zM77.657 292.362h63.954c3.045 0 4.57-1.53 4.57-4.572v-27.41c0-3.045-1.525-4.565-4.57-4.568H77.657c-3.044 0-4.568 1.523-4.568 4.568v27.41c0 3.042 1.524 4.572 4.568 4.572zM77.657 219.268h27.408c3.046 0 4.569-1.525 4.569-4.57v-27.406c0-3.046-1.52-4.565-4.569-4.57H77.657c-3.044 0-4.568 1.524-4.568 4.57v27.406c0 3.045 1.524 4.57 4.568 4.57zM397.43 328.903H150.751c-3.046 0-4.57 1.526-4.57 4.572v27.404c0 3.039 1.524 4.572 4.57 4.572h246.67c3.046 0 4.572-1.526 4.572-4.572v-27.404c.001-3.045-1.525-4.572-4.563-4.572zM182.725 287.79c0 3.042 1.523 4.572 4.565 4.572h27.412c3.044 0 4.565-1.53 4.565-4.572v-27.41c0-3.045-1.518-4.565-4.565-4.568H187.29c-3.042 0-4.565 1.523-4.565 4.568v27.41zM150.751 219.268h27.406c3.046 0 4.57-1.525 4.57-4.57v-27.406c0-3.046-1.524-4.565-4.57-4.57h-27.406c-3.046 0-4.57 1.524-4.57 4.57v27.406c0 3.045 1.525 4.57 4.57 4.57zM255.813 287.79c0 3.042 1.524 4.572 4.568 4.572h27.408c3.046 0 4.572-1.53 4.572-4.572v-27.41c0-3.045-1.526-4.565-4.572-4.568h-27.408c-3.044 0-4.568 1.523-4.568 4.568v27.41zM223.837 219.268h27.406c3.046 0 4.57-1.525 4.57-4.57v-27.406c0-3.046-1.521-4.565-4.57-4.57h-27.406c-3.046 0-4.57 1.524-4.57 4.57v27.406c0 3.045 1.524 4.57 4.57 4.57zM328.904 287.79c0 3.042 1.525 4.572 4.564 4.572h27.412c3.045 0 4.564-1.53 4.564-4.572v-27.41c0-3.045-1.52-4.565-4.564-4.568h-27.412c-3.039 0-4.564 1.523-4.564 4.568v27.41zM470.513 328.903h-27.404c-3.046 0-4.572 1.526-4.572 4.572v27.404c0 3.039 1.526 4.572 4.572 4.572h27.404c3.046 0 4.572-1.526 4.572-4.572v-27.404c0-3.045-1.523-4.572-4.572-4.572zM296.928 219.268h27.411c3.046 0 4.565-1.525 4.565-4.57v-27.406c0-3.046-1.52-4.565-4.565-4.57h-27.411c-3.046 0-4.565 1.524-4.565 4.57v27.406c-.001 3.045 1.519 4.57 4.565 4.57zM370.018 219.268h27.404c3.046 0 4.572-1.525 4.572-4.57v-27.406c0-3.046-1.526-4.565-4.572-4.57h-27.404c-3.046 0-4.572 1.524-4.572 4.57v27.406c-.001 3.045 1.526 4.57 4.572 4.57zM401.991 287.79c0 3.042 1.522 4.572 4.568 4.572h63.953c3.046 0 4.572-1.53 4.572-4.572V187.292c0-3.046-1.522-4.565-4.572-4.57h-27.404c-3.046 0-4.572 1.524-4.572 4.57v68.52H406.56c-3.046 0-4.568 1.523-4.568 4.568v27.41z"/></svg>