<svg xmlns="http://www.w3.org/2000/svg" width="26" height="105" viewBox="0 0 26 105"><g fill="none"><path fill="#D7D6D6" d="M14.08 23c-5.48 0-9.92-4.44-9.92-9.92s4.44-9.92 9.92-9.92S24 7.6 24 13.08 19.56 23 14.08 23z"/><path fill="#333" d="M11.6 3.16c-6.153 0-8.68 3.06-8.68 6.82 0 1.12.453 2.166 1.24 3.1 0-4.786 3.337-8.68 7.44-8.68 2.052 0 3.913 1.595 5.26 3.168 1.53 1.788 2.186 2.865 3.196 3.876A5.56 5.56 0 0 0 24 13.08c0-5.47-4.45-9.92-9.92-9.92H11.6z"/><path fill="#71B732" d="M14.08 50c-5.48 0-9.92-4.44-9.92-9.92s4.44-9.92 9.92-9.92S24 34.6 24 40.08 19.56 50 14.08 50z"/><path fill="#333" d="M11.6 30.16c-6.153 0-8.68 3.06-8.68 6.82 0 1.12.453 2.166 1.24 3.1 0-4.786 3.337-8.68 7.44-8.68 2.052 0 3.913 1.595 5.26 3.168 1.53 1.788 2.186 2.865 3.196 3.876A5.56 5.56 0 0 0 24 40.08c0-5.47-4.45-9.92-9.92-9.92H11.6z"/><path fill="#FC0" d="M14.08 104c-5.48 0-9.92-4.44-9.92-9.92s4.44-9.92 9.92-9.92S24 88.6 24 94.08 19.56 104 14.08 104z"/><path fill="#333" d="M11.6 84.16c-6.153 0-8.68 3.06-8.68 6.82 0 1.12.453 2.166 1.24 3.1 0-4.786 3.337-8.68 7.44-8.68 2.052 0 3.913 1.595 5.26 3.168 1.53 1.788 2.186 2.865 3.196 3.876A5.56 5.56 0 0 0 24 94.08c0-5.47-4.45-9.92-9.92-9.92H11.6z"/><path fill="#F33" d="M14.08 77c-5.48 0-9.92-4.44-9.92-9.92s4.44-9.92 9.92-9.92S24 61.6 24 67.08 19.56 77 14.08 77z"/><path fill="#333" d="M11.6 57.16c-6.153 0-8.68 3.06-8.68 6.82 0 1.12.453 2.166 1.24 3.1 0-4.786 3.337-8.68 7.44-8.68 2.052 0 3.913 1.595 5.26 3.168 1.53 1.788 2.186 2.865 3.196 3.876A5.56 5.56 0 0 0 24 67.08c0-5.47-4.45-9.92-9.92-9.92H11.6z"/></g></svg>