<svg height="32" width="32" xmlns="http://www.w3.org/2000/svg"><path d="M25.264 12.167a4.05 4.05 0 0 1-4.05 4.05 4.05 4.05 0 0 1-4.049-4.05 4.05 4.05 0 0 1 4.05-4.05 4.05 4.05 0 0 1 4.05 4.05" fill="#ffd158"/><path d="M21.241 3.662a.5.5 0 0 0-.492.507v1.487a.5.5 0 1 0 1 0V4.169a.5.5 0 0 0-.508-.507zM29.75 12.154a.5.5 0 0 0-.508-.492h-1.486a.5.5 0 1 0 0 1h1.486a.5.5 0 0 0 .508-.508zM15.75 6.163a.5.5 0 0 0-.349.858l.99.99a.5.5 0 1 0 .708-.707l-.99-.99a.5.5 0 0 0-.36-.15zM27.098 6.303a.5.5 0 0 0-.708.01l-.99.99a.5.5 0 1 0 .708.708l.99-.99a.5.5 0 0 0 0-.718zM25.749 16.157a.5.5 0 0 0-.348.86l.99.99a.5.5 0 1 0 .707-.708l-.99-.99a.5.5 0 0 0-.36-.152z" style="line-height:normal;text-indent:0;text-align:start;text-decoration-line:none;text-decoration-style:solid;text-decoration-color:#000;text-transform:none;white-space:normal;isolation:auto;mix-blend-mode:normal;solid-color:#000;solid-opacity:1" color="#000" font-weight="400" font-family="sans-serif" overflow="visible" fill="#ffd158" fill-rule="evenodd"/><path d="M14.75 9.662a6.5 6.5 0 0 0-5.936 3.863A4.75 4.75 0 0 0 7 13.162a4.75 4.75 0 0 0-4.75 4.75A4.75 4.75 0 0 0 7 22.662h7.75a6.5 6.5 0 0 0 6.5-6.5 6.5 6.5 0 0 0-6.5-6.5z" fill="#e6f3eb"/><path d="M18.25 26.838a1.5 1.5 0 0 1-3 0c0-.828 1.5-2.5 1.5-2.5s1.5 1.672 1.5 2.5zM8.25 26.838a1.5 1.5 0 0 1-3 0c0-.828 1.5-2.5 1.5-2.5s1.5 1.672 1.5 2.5z" fill="#43b6c2"/><path d="M11.75 20.047s-1.442 1.617-1.672 2.615h3.344c-.23-.998-1.672-2.615-1.672-2.615z" fill="#d5e1da"/><path d="M17.812 9.98a4.05 4.05 0 0 0-.2.35 6.5 6.5 0 0 1 3.637 5.832 6.5 6.5 0 0 1-.002.053 4.05 4.05 0 0 0 .434-.03 6.5 6.5 0 0 0 .01-.265 6.5 6.5 0 0 0-3.88-5.94z" fill="#ecc355"/><path d="M13.25 22.839a1.5 1.5 0 0 1-3 0c0-.829 1.5-2.5 1.5-2.5s1.5 1.671 1.5 2.5z" fill="#43b6c2"/></svg>