<svg xmlns="http://www.w3.org/2000/svg" xmlns:xlink="http://www.w3.org/1999/xlink"><path style="stroke:none;fill-rule:evenodd;fill:#acf;fill-opacity:1;" d="M 7 14 C 10.859375 14 14 11.152344 14 7.65625 C 14 4.160156 10.859375 1.3125 7 1.3125 C 6.742188 1.3125 6.484375 1.324219 6.226562 1.351562 L 6.226562 0.328125 C 6.226562 0.195312 6.136719 0.0742188 6.003906 0.0234375 C 5.871094 -0.0273438 5.71875 0.00390625 5.609375 0.0976562 L 3.128906 2.347656 C 2.988281 2.476562 2.988281 2.679688 3.128906 2.8125 L 5.609375 5.066406 C 5.714844 5.160156 5.867188 5.191406 6.003906 5.140625 C 6.136719 5.085938 6.226562 4.96875 6.226562 4.835938 L 6.226562 3.699219 C 6.484375 3.65625 6.742188 3.636719 7 3.636719 C 9.445312 3.636719 11.433594 5.441406 11.433594 7.65625 C 11.433594 9.871094 9.445312 11.675781 7 11.675781 C 4.554688 11.675781 2.566406 9.871094 2.566406 7.65625 C 2.566406 7.476562 2.402344 7.328125 2.203125 7.328125 L 0.363281 7.328125 C 0.164062 7.328125 0 7.476562 0 7.65625 C 0 11.152344 3.140625 14 7 14 Z M 7 14 "/></svg>
